<svg width="29" height="31" viewBox="0 0 29 31" fill="none" xmlns="http://www.w3.org/2000/svg">
<path d="M28.5105 19.1146L25.9312 17.6252C26.1916 16.2205 26.1916 14.7795 25.9312 13.3748L28.5105 11.8854C28.8072 11.7158 28.9404 11.3646 28.8435 11.0377C28.1715 8.88223 27.0271 6.93262 25.5316 5.30996C25.3016 5.06172 24.9262 5.00117 24.6355 5.1707L22.0562 6.66016C20.9725 5.72773 19.7252 5.00723 18.375 4.53496V1.56211C18.375 1.22305 18.1389 0.926366 17.8059 0.85371C15.5838 0.357225 13.3072 0.381444 11.1941 0.85371C10.8611 0.926366 10.625 1.22305 10.625 1.56211V4.54101C9.28086 5.01934 8.03359 5.73984 6.94375 6.66621L4.37051 5.17676C4.07383 5.00723 3.70449 5.06172 3.47441 5.31602C1.97891 6.93262 0.834571 8.88223 0.162501 11.0437C0.0595716 11.3707 0.198829 11.7219 0.495509 11.8914L3.07481 13.3809C2.81445 14.7855 2.81445 16.2266 3.07481 17.6313L0.495509 19.1207C0.198829 19.2902 0.0656263 19.6414 0.162501 19.9684C0.834571 22.1238 1.97891 24.0734 3.47441 25.6961C3.70449 25.9443 4.07988 26.0049 4.37051 25.8354L6.9498 24.3459C8.03359 25.2783 9.28086 25.9988 10.6311 26.4711V29.45C10.6311 29.7891 10.8672 30.0857 11.2002 30.1584C13.4223 30.6549 15.6988 30.6307 17.8119 30.1584C18.1449 30.0857 18.3811 29.7891 18.3811 29.45V26.4711C19.7252 25.9928 20.9725 25.2723 22.0623 24.3459L24.6416 25.8354C24.9383 26.0049 25.3076 25.9504 25.5377 25.6961C27.0332 24.0795 28.1775 22.1299 28.8496 19.9684C28.9404 19.6354 28.8072 19.2842 28.5105 19.1146V19.1146ZM14.5 20.3438C11.8299 20.3438 9.65625 18.1701 9.65625 15.5C9.65625 12.8299 11.8299 10.6562 14.5 10.6562C17.1701 10.6562 19.3437 12.8299 19.3437 15.5C19.3437 18.1701 17.1701 20.3438 14.5 20.3438Z" fill="black"/>
</svg>
