<svg width="31" height="25" viewBox="0 0 31 25" fill="none" xmlns="http://www.w3.org/2000/svg">
<path d="M20.15 16.375H22.475C22.8625 16.375 23.25 15.9875 23.25 15.6V7.4625C23.25 7.075 22.8625 6.6875 22.475 6.6875H20.15C19.7625 6.6875 19.375 7.075 19.375 7.4625V15.6C19.375 15.9875 19.7625 16.375 20.15 16.375V16.375ZM25.9625 16.375H28.2875C28.675 16.375 29.0625 15.9875 29.0625 15.6V1.65C29.0625 1.2625 28.675 0.875 28.2875 0.875H25.9625C25.575 0.875 25.1875 1.2625 25.1875 1.65V15.6C25.1875 15.9875 25.575 16.375 25.9625 16.375ZM8.525 16.375H10.85C11.2375 16.375 11.625 15.9875 11.625 15.6V11.3375C11.625 10.95 11.2375 10.5625 10.85 10.5625H8.525C8.1375 10.5625 7.75 10.95 7.75 11.3375V15.6C7.75 15.9875 8.1375 16.375 8.525 16.375ZM14.3375 16.375H16.6625C17.05 16.375 17.4375 15.9875 17.4375 15.6V3.5875C17.4375 3.2 17.05 2.8125 16.6625 2.8125H14.3375C13.95 2.8125 13.5625 3.2 13.5625 3.5875V15.6C13.5625 15.9875 13.95 16.375 14.3375 16.375V16.375ZM30.0312 20.25H3.875V1.84375C3.875 1.30852 3.44148 0.875 2.90625 0.875H0.96875C0.433516 0.875 0 1.30852 0 1.84375V22.1875C0 23.2574 0.867637 24.125 1.9375 24.125H30.0312C30.5665 24.125 31 23.6915 31 23.1562V21.2188C31 20.6835 30.5665 20.25 30.0312 20.25Z" fill="black"/>
</svg>
