<svg width="31" height="31" viewBox="0 0 31 31" fill="none" xmlns="http://www.w3.org/2000/svg">
<path d="M12.3697 0.302735C6.35137 1.47734 1.50156 6.31504 0.314845 12.3152C-1.92539 23.6375 8.28887 32.0777 15.9844 30.885C18.4789 30.4975 19.702 27.5791 18.5576 25.3328C17.159 22.584 19.157 19.375 22.2449 19.375H27.0705C29.2381 19.375 30.9939 17.5828 31 15.4213C30.9697 5.8791 22.2873 -1.62871 12.3697 0.302735ZM5.8125 19.375C4.74082 19.375 3.875 18.5092 3.875 17.4375C3.875 16.3658 4.74082 15.5 5.8125 15.5C6.88418 15.5 7.75 16.3658 7.75 17.4375C7.75 18.5092 6.88418 19.375 5.8125 19.375ZM7.75 11.625C6.67832 11.625 5.8125 10.7592 5.8125 9.6875C5.8125 8.61582 6.67832 7.75 7.75 7.75C8.82168 7.75 9.6875 8.61582 9.6875 9.6875C9.6875 10.7592 8.82168 11.625 7.75 11.625ZM15.5 7.75C14.4283 7.75 13.5625 6.88418 13.5625 5.8125C13.5625 4.74082 14.4283 3.875 15.5 3.875C16.5717 3.875 17.4375 4.74082 17.4375 5.8125C17.4375 6.88418 16.5717 7.75 15.5 7.75ZM23.25 11.625C22.1783 11.625 21.3125 10.7592 21.3125 9.6875C21.3125 8.61582 22.1783 7.75 23.25 7.75C24.3217 7.75 25.1875 8.61582 25.1875 9.6875C25.1875 10.7592 24.3217 11.625 23.25 11.625Z" fill="black"/>
</svg>
