<svg width="31" height="29" viewBox="0 0 31 29" fill="none" xmlns="http://www.w3.org/2000/svg">
<path d="M28.7857 11.5938H18.8214V2.875C18.8214 1.80514 17.8298 0.9375 16.6071 0.9375H14.3929C13.1702 0.9375 12.1786 1.80514 12.1786 2.875V11.5938H2.21429C0.991585 11.5938 0 12.4614 0 13.5312V15.4688C0 16.5386 0.991585 17.4062 2.21429 17.4062H12.1786V26.125C12.1786 27.1949 13.1702 28.0625 14.3929 28.0625H16.6071C17.8298 28.0625 18.8214 27.1949 18.8214 26.125V17.4062H28.7857C30.0084 17.4062 31 16.5386 31 15.4688V13.5312C31 12.4614 30.0084 11.5938 28.7857 11.5938Z" fill="black"/>
</svg>
